<?xml version="1.0" encoding="utf-8" standalone="no"?>
<!DOCTYPE svg PUBLIC "-//W3C//DTD SVG 1.1//EN"
  "http://www.w3.org/Graphics/SVG/1.1/DTD/svg11.dtd">
<svg xmlns:xlink="http://www.w3.org/1999/xlink" width="500.85pt" height="360pt" viewBox="0 0 500.85 360" xmlns="http://www.w3.org/2000/svg" version="1.1">
 <metadata>
  <rdf:RDF xmlns:dc="http://purl.org/dc/elements/1.1/" xmlns:cc="http://creativecommons.org/ns#" xmlns:rdf="http://www.w3.org/1999/02/22-rdf-syntax-ns#">
   <cc:Work>
    <dc:type rdf:resource="http://purl.org/dc/dcmitype/StillImage"/>
    <dc:date>2023-03-06T12:30:01.670984</dc:date>
    <dc:format>image/svg+xml</dc:format>
    <dc:creator>
     <cc:Agent>
      <dc:title>Matplotlib v3.6.2, https://matplotlib.org/</dc:title>
     </cc:Agent>
    </dc:creator>
   </cc:Work>
  </rdf:RDF>
 </metadata>
 <defs>
  <style type="text/css">*{stroke-linejoin: round; stroke-linecap: butt}</style>
 </defs>
 <g id="figure_1">
  <g id="patch_1">
   <path d="M 0 360 
L 500.85 360 
L 500.85 0 
L 0 0 
L 0 360 
z
" style="fill: none"/>
  </g>
  <g id="axes_1">
   <g id="patch_2">
    <path d="M 112.413 299.7 
L 354.9915 299.7 
L 354.9915 25.8 
L 112.413 25.8 
z
" style="fill: #ffffff"/>
   </g>
   <g id="matplotlib.axis_1">
    <g id="xtick_1">
     <g id="line2d_1">
      <defs>
       <path id="mace8a11f52" d="M 0 0 
L 0 9 
" style="stroke: #000000; stroke-width: 1.875"/>
      </defs>
      <g>
       <use xlink:href="#mace8a11f52" x="123.439295" y="299.7" style="stroke: #000000; stroke-width: 1.875"/>
      </g>
     </g>
     <g id="text_1">
      <!-- 0 -->
      <g transform="translate(118.349295 324.3575) scale(0.16 -0.16)">
       <defs>
        <path id="DejaVuSans-30" d="M 2034 4250 
Q 1547 4250 1301 3770 
Q 1056 3291 1056 2328 
Q 1056 1369 1301 889 
Q 1547 409 2034 409 
Q 2525 409 2770 889 
Q 3016 1369 3016 2328 
Q 3016 3291 2770 3770 
Q 2525 4250 2034 4250 
z
M 2034 4750 
Q 2819 4750 3233 4129 
Q 3647 3509 3647 2328 
Q 3647 1150 3233 529 
Q 2819 -91 2034 -91 
Q 1250 -91 836 529 
Q 422 1150 422 2328 
Q 422 3509 836 4129 
Q 1250 4750 2034 4750 
z
" transform="scale(0.015625)"/>
       </defs>
       <use xlink:href="#DejaVuSans-30"/>
      </g>
     </g>
    </g>
    <g id="xtick_2">
     <g id="line2d_2">
      <g>
       <use xlink:href="#mace8a11f52" x="211.737958" y="299.7" style="stroke: #000000; stroke-width: 1.875"/>
      </g>
     </g>
     <g id="text_2">
      <!-- 20 -->
      <g transform="translate(201.557958 324.3575) scale(0.16 -0.16)">
       <defs>
        <path id="DejaVuSans-32" d="M 1228 531 
L 3431 531 
L 3431 0 
L 469 0 
L 469 531 
Q 828 903 1448 1529 
Q 2069 2156 2228 2338 
Q 2531 2678 2651 2914 
Q 2772 3150 2772 3378 
Q 2772 3750 2511 3984 
Q 2250 4219 1831 4219 
Q 1534 4219 1204 4116 
Q 875 4013 500 3803 
L 500 4441 
Q 881 4594 1212 4672 
Q 1544 4750 1819 4750 
Q 2544 4750 2975 4387 
Q 3406 4025 3406 3419 
Q 3406 3131 3298 2873 
Q 3191 2616 2906 2266 
Q 2828 2175 2409 1742 
Q 1991 1309 1228 531 
z
" transform="scale(0.015625)"/>
       </defs>
       <use xlink:href="#DejaVuSans-32"/>
       <use xlink:href="#DejaVuSans-30" x="63.623047"/>
      </g>
     </g>
    </g>
    <g id="xtick_3">
     <g id="line2d_3">
      <g>
       <use xlink:href="#mace8a11f52" x="300.03662" y="299.7" style="stroke: #000000; stroke-width: 1.875"/>
      </g>
     </g>
     <g id="text_3">
      <!-- 40 -->
      <g transform="translate(289.85662 324.3575) scale(0.16 -0.16)">
       <defs>
        <path id="DejaVuSans-34" d="M 2419 4116 
L 825 1625 
L 2419 1625 
L 2419 4116 
z
M 2253 4666 
L 3047 4666 
L 3047 1625 
L 3713 1625 
L 3713 1100 
L 3047 1100 
L 3047 0 
L 2419 0 
L 2419 1100 
L 313 1100 
L 313 1709 
L 2253 4666 
z
" transform="scale(0.015625)"/>
       </defs>
       <use xlink:href="#DejaVuSans-34"/>
       <use xlink:href="#DejaVuSans-30" x="63.623047"/>
      </g>
     </g>
    </g>
    <g id="text_4">
     <!-- times -->
     <g transform="translate(208.680844 345.362188) scale(0.18 -0.18)">
      <defs>
       <path id="DejaVuSans-74" d="M 1172 4494 
L 1172 3500 
L 2356 3500 
L 2356 3053 
L 1172 3053 
L 1172 1153 
Q 1172 725 1289 603 
Q 1406 481 1766 481 
L 2356 481 
L 2356 0 
L 1766 0 
Q 1100 0 847 248 
Q 594 497 594 1153 
L 594 3053 
L 172 3053 
L 172 3500 
L 594 3500 
L 594 4494 
L 1172 4494 
z
" transform="scale(0.015625)"/>
       <path id="DejaVuSans-69" d="M 603 3500 
L 1178 3500 
L 1178 0 
L 603 0 
L 603 3500 
z
M 603 4863 
L 1178 4863 
L 1178 4134 
L 603 4134 
L 603 4863 
z
" transform="scale(0.015625)"/>
       <path id="DejaVuSans-6d" d="M 3328 2828 
Q 3544 3216 3844 3400 
Q 4144 3584 4550 3584 
Q 5097 3584 5394 3201 
Q 5691 2819 5691 2113 
L 5691 0 
L 5113 0 
L 5113 2094 
Q 5113 2597 4934 2840 
Q 4756 3084 4391 3084 
Q 3944 3084 3684 2787 
Q 3425 2491 3425 1978 
L 3425 0 
L 2847 0 
L 2847 2094 
Q 2847 2600 2669 2842 
Q 2491 3084 2119 3084 
Q 1678 3084 1418 2786 
Q 1159 2488 1159 1978 
L 1159 0 
L 581 0 
L 581 3500 
L 1159 3500 
L 1159 2956 
Q 1356 3278 1631 3431 
Q 1906 3584 2284 3584 
Q 2666 3584 2933 3390 
Q 3200 3197 3328 2828 
z
" transform="scale(0.015625)"/>
       <path id="DejaVuSans-65" d="M 3597 1894 
L 3597 1613 
L 953 1613 
Q 991 1019 1311 708 
Q 1631 397 2203 397 
Q 2534 397 2845 478 
Q 3156 559 3463 722 
L 3463 178 
Q 3153 47 2828 -22 
Q 2503 -91 2169 -91 
Q 1331 -91 842 396 
Q 353 884 353 1716 
Q 353 2575 817 3079 
Q 1281 3584 2069 3584 
Q 2775 3584 3186 3129 
Q 3597 2675 3597 1894 
z
M 3022 2063 
Q 3016 2534 2758 2815 
Q 2500 3097 2075 3097 
Q 1594 3097 1305 2825 
Q 1016 2553 972 2059 
L 3022 2063 
z
" transform="scale(0.015625)"/>
       <path id="DejaVuSans-73" d="M 2834 3397 
L 2834 2853 
Q 2591 2978 2328 3040 
Q 2066 3103 1784 3103 
Q 1356 3103 1142 2972 
Q 928 2841 928 2578 
Q 928 2378 1081 2264 
Q 1234 2150 1697 2047 
L 1894 2003 
Q 2506 1872 2764 1633 
Q 3022 1394 3022 966 
Q 3022 478 2636 193 
Q 2250 -91 1575 -91 
Q 1294 -91 989 -36 
Q 684 19 347 128 
L 347 722 
Q 666 556 975 473 
Q 1284 391 1588 391 
Q 1994 391 2212 530 
Q 2431 669 2431 922 
Q 2431 1156 2273 1281 
Q 2116 1406 1581 1522 
L 1381 1569 
Q 847 1681 609 1914 
Q 372 2147 372 2553 
Q 372 3047 722 3315 
Q 1072 3584 1716 3584 
Q 2034 3584 2315 3537 
Q 2597 3491 2834 3397 
z
" transform="scale(0.015625)"/>
      </defs>
      <use xlink:href="#DejaVuSans-74"/>
      <use xlink:href="#DejaVuSans-69" x="39.208984"/>
      <use xlink:href="#DejaVuSans-6d" x="66.992188"/>
      <use xlink:href="#DejaVuSans-65" x="164.404297"/>
      <use xlink:href="#DejaVuSans-73" x="225.927734"/>
     </g>
    </g>
   </g>
   <g id="matplotlib.axis_2">
    <g id="ytick_1">
     <g id="line2d_4">
      <defs>
       <path id="m4004340555" d="M 0 0 
L -9 0 
" style="stroke: #000000; stroke-width: 1.875"/>
      </defs>
      <g>
       <use xlink:href="#m4004340555" x="112.413" y="287.981939" style="stroke: #000000; stroke-width: 1.875"/>
      </g>
     </g>
     <g id="text_5">
      <!-- 0.00 -->
      <g transform="translate(64.288 294.060689) scale(0.16 -0.16)">
       <defs>
        <path id="DejaVuSans-2e" d="M 684 794 
L 1344 794 
L 1344 0 
L 684 0 
L 684 794 
z
" transform="scale(0.015625)"/>
       </defs>
       <use xlink:href="#DejaVuSans-30"/>
       <use xlink:href="#DejaVuSans-2e" x="63.623047"/>
       <use xlink:href="#DejaVuSans-30" x="95.410156"/>
       <use xlink:href="#DejaVuSans-30" x="159.033203"/>
      </g>
     </g>
    </g>
    <g id="ytick_2">
     <g id="line2d_5">
      <g>
       <use xlink:href="#m4004340555" x="112.413" y="252.131639" style="stroke: #000000; stroke-width: 1.875"/>
      </g>
     </g>
     <g id="text_6">
      <!-- 0.25 -->
      <g transform="translate(64.288 258.210389) scale(0.16 -0.16)">
       <defs>
        <path id="DejaVuSans-35" d="M 691 4666 
L 3169 4666 
L 3169 4134 
L 1269 4134 
L 1269 2991 
Q 1406 3038 1543 3061 
Q 1681 3084 1819 3084 
Q 2600 3084 3056 2656 
Q 3513 2228 3513 1497 
Q 3513 744 3044 326 
Q 2575 -91 1722 -91 
Q 1428 -91 1123 -41 
Q 819 9 494 109 
L 494 744 
Q 775 591 1075 516 
Q 1375 441 1709 441 
Q 2250 441 2565 725 
Q 2881 1009 2881 1497 
Q 2881 1984 2565 2268 
Q 2250 2553 1709 2553 
Q 1456 2553 1204 2497 
Q 953 2441 691 2322 
L 691 4666 
z
" transform="scale(0.015625)"/>
       </defs>
       <use xlink:href="#DejaVuSans-30"/>
       <use xlink:href="#DejaVuSans-2e" x="63.623047"/>
       <use xlink:href="#DejaVuSans-32" x="95.410156"/>
       <use xlink:href="#DejaVuSans-35" x="159.033203"/>
      </g>
     </g>
    </g>
    <g id="ytick_3">
     <g id="line2d_6">
      <g>
       <use xlink:href="#m4004340555" x="112.413" y="216.281338" style="stroke: #000000; stroke-width: 1.875"/>
      </g>
     </g>
     <g id="text_7">
      <!-- 0.50 -->
      <g transform="translate(64.288 222.360088) scale(0.16 -0.16)">
       <use xlink:href="#DejaVuSans-30"/>
       <use xlink:href="#DejaVuSans-2e" x="63.623047"/>
       <use xlink:href="#DejaVuSans-35" x="95.410156"/>
       <use xlink:href="#DejaVuSans-30" x="159.033203"/>
      </g>
     </g>
    </g>
    <g id="ytick_4">
     <g id="line2d_7">
      <g>
       <use xlink:href="#m4004340555" x="112.413" y="180.431038" style="stroke: #000000; stroke-width: 1.875"/>
      </g>
     </g>
     <g id="text_8">
      <!-- 0.75 -->
      <g transform="translate(64.288 186.509788) scale(0.16 -0.16)">
       <defs>
        <path id="DejaVuSans-37" d="M 525 4666 
L 3525 4666 
L 3525 4397 
L 1831 0 
L 1172 0 
L 2766 4134 
L 525 4134 
L 525 4666 
z
" transform="scale(0.015625)"/>
       </defs>
       <use xlink:href="#DejaVuSans-30"/>
       <use xlink:href="#DejaVuSans-2e" x="63.623047"/>
       <use xlink:href="#DejaVuSans-37" x="95.410156"/>
       <use xlink:href="#DejaVuSans-35" x="159.033203"/>
      </g>
     </g>
    </g>
    <g id="ytick_5">
     <g id="line2d_8">
      <g>
       <use xlink:href="#m4004340555" x="112.413" y="144.580737" style="stroke: #000000; stroke-width: 1.875"/>
      </g>
     </g>
     <g id="text_9">
      <!-- 1.00 -->
      <g transform="translate(64.288 150.659487) scale(0.16 -0.16)">
       <defs>
        <path id="DejaVuSans-31" d="M 794 531 
L 1825 531 
L 1825 4091 
L 703 3866 
L 703 4441 
L 1819 4666 
L 2450 4666 
L 2450 531 
L 3481 531 
L 3481 0 
L 794 0 
L 794 531 
z
" transform="scale(0.015625)"/>
       </defs>
       <use xlink:href="#DejaVuSans-31"/>
       <use xlink:href="#DejaVuSans-2e" x="63.623047"/>
       <use xlink:href="#DejaVuSans-30" x="95.410156"/>
       <use xlink:href="#DejaVuSans-30" x="159.033203"/>
      </g>
     </g>
    </g>
    <g id="ytick_6">
     <g id="line2d_9">
      <g>
       <use xlink:href="#m4004340555" x="112.413" y="108.730437" style="stroke: #000000; stroke-width: 1.875"/>
      </g>
     </g>
     <g id="text_10">
      <!-- 1.25 -->
      <g transform="translate(64.288 114.809187) scale(0.16 -0.16)">
       <use xlink:href="#DejaVuSans-31"/>
       <use xlink:href="#DejaVuSans-2e" x="63.623047"/>
       <use xlink:href="#DejaVuSans-32" x="95.410156"/>
       <use xlink:href="#DejaVuSans-35" x="159.033203"/>
      </g>
     </g>
    </g>
    <g id="ytick_7">
     <g id="line2d_10">
      <g>
       <use xlink:href="#m4004340555" x="112.413" y="72.880137" style="stroke: #000000; stroke-width: 1.875"/>
      </g>
     </g>
     <g id="text_11">
      <!-- 1.50 -->
      <g transform="translate(64.288 78.958887) scale(0.16 -0.16)">
       <use xlink:href="#DejaVuSans-31"/>
       <use xlink:href="#DejaVuSans-2e" x="63.623047"/>
       <use xlink:href="#DejaVuSans-35" x="95.410156"/>
       <use xlink:href="#DejaVuSans-30" x="159.033203"/>
      </g>
     </g>
    </g>
    <g id="ytick_8">
     <g id="line2d_11">
      <g>
       <use xlink:href="#m4004340555" x="112.413" y="37.029836" style="stroke: #000000; stroke-width: 1.875"/>
      </g>
     </g>
     <g id="text_12">
      <!-- 1.75 -->
      <g transform="translate(64.288 43.108586) scale(0.16 -0.16)">
       <use xlink:href="#DejaVuSans-31"/>
       <use xlink:href="#DejaVuSans-2e" x="63.623047"/>
       <use xlink:href="#DejaVuSans-37" x="95.410156"/>
       <use xlink:href="#DejaVuSans-35" x="159.033203"/>
      </g>
     </g>
    </g>
    <g id="text_13">
     <!-- Difference of Force from ideal -->
     <g transform="translate(56.544563 296.443594) rotate(-90) scale(0.18 -0.18)">
      <defs>
       <path id="DejaVuSans-44" d="M 1259 4147 
L 1259 519 
L 2022 519 
Q 2988 519 3436 956 
Q 3884 1394 3884 2338 
Q 3884 3275 3436 3711 
Q 2988 4147 2022 4147 
L 1259 4147 
z
M 628 4666 
L 1925 4666 
Q 3281 4666 3915 4102 
Q 4550 3538 4550 2338 
Q 4550 1131 3912 565 
Q 3275 0 1925 0 
L 628 0 
L 628 4666 
z
" transform="scale(0.015625)"/>
       <path id="DejaVuSans-66" d="M 2375 4863 
L 2375 4384 
L 1825 4384 
Q 1516 4384 1395 4259 
Q 1275 4134 1275 3809 
L 1275 3500 
L 2222 3500 
L 2222 3053 
L 1275 3053 
L 1275 0 
L 697 0 
L 697 3053 
L 147 3053 
L 147 3500 
L 697 3500 
L 697 3744 
Q 697 4328 969 4595 
Q 1241 4863 1831 4863 
L 2375 4863 
z
" transform="scale(0.015625)"/>
       <path id="DejaVuSans-72" d="M 2631 2963 
Q 2534 3019 2420 3045 
Q 2306 3072 2169 3072 
Q 1681 3072 1420 2755 
Q 1159 2438 1159 1844 
L 1159 0 
L 581 0 
L 581 3500 
L 1159 3500 
L 1159 2956 
Q 1341 3275 1631 3429 
Q 1922 3584 2338 3584 
Q 2397 3584 2469 3576 
Q 2541 3569 2628 3553 
L 2631 2963 
z
" transform="scale(0.015625)"/>
       <path id="DejaVuSans-6e" d="M 3513 2113 
L 3513 0 
L 2938 0 
L 2938 2094 
Q 2938 2591 2744 2837 
Q 2550 3084 2163 3084 
Q 1697 3084 1428 2787 
Q 1159 2491 1159 1978 
L 1159 0 
L 581 0 
L 581 3500 
L 1159 3500 
L 1159 2956 
Q 1366 3272 1645 3428 
Q 1925 3584 2291 3584 
Q 2894 3584 3203 3211 
Q 3513 2838 3513 2113 
z
" transform="scale(0.015625)"/>
       <path id="DejaVuSans-63" d="M 3122 3366 
L 3122 2828 
Q 2878 2963 2633 3030 
Q 2388 3097 2138 3097 
Q 1578 3097 1268 2742 
Q 959 2388 959 1747 
Q 959 1106 1268 751 
Q 1578 397 2138 397 
Q 2388 397 2633 464 
Q 2878 531 3122 666 
L 3122 134 
Q 2881 22 2623 -34 
Q 2366 -91 2075 -91 
Q 1284 -91 818 406 
Q 353 903 353 1747 
Q 353 2603 823 3093 
Q 1294 3584 2113 3584 
Q 2378 3584 2631 3529 
Q 2884 3475 3122 3366 
z
" transform="scale(0.015625)"/>
       <path id="DejaVuSans-20" transform="scale(0.015625)"/>
       <path id="DejaVuSans-6f" d="M 1959 3097 
Q 1497 3097 1228 2736 
Q 959 2375 959 1747 
Q 959 1119 1226 758 
Q 1494 397 1959 397 
Q 2419 397 2687 759 
Q 2956 1122 2956 1747 
Q 2956 2369 2687 2733 
Q 2419 3097 1959 3097 
z
M 1959 3584 
Q 2709 3584 3137 3096 
Q 3566 2609 3566 1747 
Q 3566 888 3137 398 
Q 2709 -91 1959 -91 
Q 1206 -91 779 398 
Q 353 888 353 1747 
Q 353 2609 779 3096 
Q 1206 3584 1959 3584 
z
" transform="scale(0.015625)"/>
       <path id="DejaVuSans-46" d="M 628 4666 
L 3309 4666 
L 3309 4134 
L 1259 4134 
L 1259 2759 
L 3109 2759 
L 3109 2228 
L 1259 2228 
L 1259 0 
L 628 0 
L 628 4666 
z
" transform="scale(0.015625)"/>
       <path id="DejaVuSans-64" d="M 2906 2969 
L 2906 4863 
L 3481 4863 
L 3481 0 
L 2906 0 
L 2906 525 
Q 2725 213 2448 61 
Q 2172 -91 1784 -91 
Q 1150 -91 751 415 
Q 353 922 353 1747 
Q 353 2572 751 3078 
Q 1150 3584 1784 3584 
Q 2172 3584 2448 3432 
Q 2725 3281 2906 2969 
z
M 947 1747 
Q 947 1113 1208 752 
Q 1469 391 1925 391 
Q 2381 391 2643 752 
Q 2906 1113 2906 1747 
Q 2906 2381 2643 2742 
Q 2381 3103 1925 3103 
Q 1469 3103 1208 2742 
Q 947 2381 947 1747 
z
" transform="scale(0.015625)"/>
       <path id="DejaVuSans-61" d="M 2194 1759 
Q 1497 1759 1228 1600 
Q 959 1441 959 1056 
Q 959 750 1161 570 
Q 1363 391 1709 391 
Q 2188 391 2477 730 
Q 2766 1069 2766 1631 
L 2766 1759 
L 2194 1759 
z
M 3341 1997 
L 3341 0 
L 2766 0 
L 2766 531 
Q 2569 213 2275 61 
Q 1981 -91 1556 -91 
Q 1019 -91 701 211 
Q 384 513 384 1019 
Q 384 1609 779 1909 
Q 1175 2209 1959 2209 
L 2766 2209 
L 2766 2266 
Q 2766 2663 2505 2880 
Q 2244 3097 1772 3097 
Q 1472 3097 1187 3025 
Q 903 2953 641 2809 
L 641 3341 
Q 956 3463 1253 3523 
Q 1550 3584 1831 3584 
Q 2591 3584 2966 3190 
Q 3341 2797 3341 1997 
z
" transform="scale(0.015625)"/>
       <path id="DejaVuSans-6c" d="M 603 4863 
L 1178 4863 
L 1178 0 
L 603 0 
L 603 4863 
z
" transform="scale(0.015625)"/>
      </defs>
      <use xlink:href="#DejaVuSans-44"/>
      <use xlink:href="#DejaVuSans-69" x="77.001953"/>
      <use xlink:href="#DejaVuSans-66" x="104.785156"/>
      <use xlink:href="#DejaVuSans-66" x="139.990234"/>
      <use xlink:href="#DejaVuSans-65" x="175.195312"/>
      <use xlink:href="#DejaVuSans-72" x="236.71875"/>
      <use xlink:href="#DejaVuSans-65" x="275.582031"/>
      <use xlink:href="#DejaVuSans-6e" x="337.105469"/>
      <use xlink:href="#DejaVuSans-63" x="400.484375"/>
      <use xlink:href="#DejaVuSans-65" x="455.464844"/>
      <use xlink:href="#DejaVuSans-20" x="516.988281"/>
      <use xlink:href="#DejaVuSans-6f" x="548.775391"/>
      <use xlink:href="#DejaVuSans-66" x="609.957031"/>
      <use xlink:href="#DejaVuSans-20" x="645.162109"/>
      <use xlink:href="#DejaVuSans-46" x="676.949219"/>
      <use xlink:href="#DejaVuSans-6f" x="730.84375"/>
      <use xlink:href="#DejaVuSans-72" x="792.025391"/>
      <use xlink:href="#DejaVuSans-63" x="830.888672"/>
      <use xlink:href="#DejaVuSans-65" x="885.869141"/>
      <use xlink:href="#DejaVuSans-20" x="947.392578"/>
      <use xlink:href="#DejaVuSans-66" x="979.179688"/>
      <use xlink:href="#DejaVuSans-72" x="1014.384766"/>
      <use xlink:href="#DejaVuSans-6f" x="1053.248047"/>
      <use xlink:href="#DejaVuSans-6d" x="1114.429688"/>
      <use xlink:href="#DejaVuSans-20" x="1211.841797"/>
      <use xlink:href="#DejaVuSans-69" x="1243.628906"/>
      <use xlink:href="#DejaVuSans-64" x="1271.412109"/>
      <use xlink:href="#DejaVuSans-65" x="1334.888672"/>
      <use xlink:href="#DejaVuSans-61" x="1396.412109"/>
      <use xlink:href="#DejaVuSans-6c" x="1457.691406"/>
     </g>
    </g>
    <g id="text_14">
     <!-- 1e−6 -->
     <g transform="translate(112.413 22.8) scale(0.16 -0.16)">
      <defs>
       <path id="DejaVuSans-2212" d="M 678 2272 
L 4684 2272 
L 4684 1741 
L 678 1741 
L 678 2272 
z
" transform="scale(0.015625)"/>
       <path id="DejaVuSans-36" d="M 2113 2584 
Q 1688 2584 1439 2293 
Q 1191 2003 1191 1497 
Q 1191 994 1439 701 
Q 1688 409 2113 409 
Q 2538 409 2786 701 
Q 3034 994 3034 1497 
Q 3034 2003 2786 2293 
Q 2538 2584 2113 2584 
z
M 3366 4563 
L 3366 3988 
Q 3128 4100 2886 4159 
Q 2644 4219 2406 4219 
Q 1781 4219 1451 3797 
Q 1122 3375 1075 2522 
Q 1259 2794 1537 2939 
Q 1816 3084 2150 3084 
Q 2853 3084 3261 2657 
Q 3669 2231 3669 1497 
Q 3669 778 3244 343 
Q 2819 -91 2113 -91 
Q 1303 -91 875 529 
Q 447 1150 447 2328 
Q 447 3434 972 4092 
Q 1497 4750 2381 4750 
Q 2619 4750 2861 4703 
Q 3103 4656 3366 4563 
z
" transform="scale(0.015625)"/>
      </defs>
      <use xlink:href="#DejaVuSans-31"/>
      <use xlink:href="#DejaVuSans-65" x="63.623047"/>
      <use xlink:href="#DejaVuSans-2212" x="125.146484"/>
      <use xlink:href="#DejaVuSans-36" x="208.935547"/>
     </g>
    </g>
   </g>
   <g id="line2d_12">
    <path d="M 123.439295 267.214087 
L 123.880789 272.109977 
L 124.101535 273.291262 
L 125.205269 275.76122 
L 125.426015 275.987724 
L 125.867509 275.889101 
L 126.309002 275.691651 
L 126.750495 274.925609 
L 127.854229 272.61008 
L 129.399455 268.870927 
L 131.827668 260.514436 
L 132.489908 259.034295 
L 133.152148 258.042889 
L 134.035135 257.097818 
L 134.918122 256.494721 
L 138.891561 254.27358 
L 140.657535 253.01018 
L 141.761268 252.040179 
L 143.527241 250.19922 
L 146.838441 247.117076 
L 149.708147 243.592412 
L 150.591134 242.09076 
L 152.577854 238.065203 
L 155.668307 231.760835 
L 156.77204 230.02903 
L 157.655027 228.951187 
L 159.641747 227.016515 
L 159.862494 226.809859 
L 162.952947 221.671313 
L 164.277427 220.105347 
L 165.38116 219.15717 
L 167.809373 217.604665 
L 169.575347 216.879574 
L 172.445053 215.782196 
L 175.977 213.994356 
L 176.859986 213.862605 
L 177.742973 213.941389 
L 178.846706 214.316653 
L 179.950439 214.967953 
L 181.274919 216.059497 
L 185.027612 219.373867 
L 186.572839 220.346266 
L 187.455826 220.749218 
L 189.001052 220.587401 
L 191.208519 220.209707 
L 192.753745 219.438448 
L 194.078225 218.846547 
L 195.623452 216.503813 
L 196.727185 214.374297 
L 198.272412 210.786008 
L 199.817638 207.216522 
L 200.700625 205.32515 
L 202.025105 202.337803 
L 204.011825 198.664319 
L 205.115558 196.87779 
L 205.998545 195.829081 
L 206.881531 195.107209 
L 207.985265 194.500983 
L 210.192731 193.435137 
L 211.517211 192.148028 
L 212.179451 191.731184 
L 212.841691 191.554522 
L 213.503931 191.654019 
L 214.166171 192.026744 
L 215.049158 192.823901 
L 216.373638 194.381313 
L 218.360357 197.155304 
L 219.464091 198.579595 
L 220.567824 199.650959 
L 221.671557 200.436938 
L 222.775291 200.887337 
L 223.879024 201.056759 
L 225.203504 201.028802 
L 227.41097 201.084309 
L 229.39769 201.012949 
L 230.72217 200.713831 
L 231.605157 200.310001 
L 232.70889 199.594232 
L 233.812623 198.745178 
L 235.137103 197.237159 
L 236.903077 195.687659 
L 240.876516 192.124015 
L 242.64249 189.673988 
L 247.278169 182.869495 
L 248.161156 182.081484 
L 249.927129 180.89756 
L 252.576089 179.400439 
L 253.238329 178.591466 
L 255.225049 175.328087 
L 258.094755 171.449709 
L 259.639982 169.80816 
L 260.522969 169.232291 
L 263.171929 168.105082 
L 264.054915 167.973847 
L 265.600142 168.120735 
L 266.483128 168.489126 
L 267.145368 168.949757 
L 268.028355 169.861774 
L 268.911342 171.150399 
L 269.794328 172.822352 
L 270.456568 174.028036 
L 272.001795 175.272011 
L 272.664035 175.786161 
L 272.884781 175.85499 
L 274.871501 174.469624 
L 277.078968 172.958151 
L 278.403448 172.391207 
L 279.727928 172.108702 
L 280.610914 172.149188 
L 281.273154 172.376412 
L 281.935394 172.85327 
L 282.156141 173.070052 
L 282.376888 172.999604 
L 283.701368 171.284311 
L 284.805101 170.095311 
L 286.129581 169.02048 
L 287.233314 168.359154 
L 288.116301 168.007184 
L 288.999287 167.91756 
L 290.323767 167.982025 
L 291.206754 168.233075 
L 292.08974 168.707297 
L 292.972727 169.389764 
L 294.07646 170.537246 
L 294.959447 171.7469 
L 296.06318 173.674203 
L 297.38766 176.536423 
L 298.71214 180.012973 
L 305.113793 198.596139 
L 307.32126 202.613771 
L 308.866486 205.511354 
L 310.411713 206.76884 
L 311.294699 206.363564 
L 312.619179 205.434058 
L 314.164406 203.842897 
L 315.930379 201.829052 
L 318.137846 196.651206 
L 320.124566 189.683205 
L 326.305472 167.140427 
L 327.629952 162.526556 
L 329.837419 152.319348 
L 333.148618 136.947793 
L 335.356085 128.303924 
L 339.108778 113.24215 
L 343.082218 96.869607 
L 343.965205 93.656387 
L 343.965205 93.656387 
" clip-path="url(#p0d74b81a32)" style="fill: none; stroke: #edd1cb; stroke-width: 2.25; stroke-linecap: square"/>
   </g>
   <g id="line2d_13">
    <path d="M 123.439295 268.05009 
L 124.101535 273.943106 
L 124.322282 275.465092 
L 124.763775 276.351568 
L 125.426015 277.18597 
L 125.646762 277.452887 
L 126.088255 277.2521 
L 126.971242 276.602481 
L 127.633482 275.456331 
L 130.061695 269.232341 
L 130.944682 267.818969 
L 132.269162 266.321961 
L 133.152148 265.624965 
L 134.476628 263.259723 
L 135.138868 262.49002 
L 135.801108 261.980742 
L 136.463348 261.732441 
L 137.346335 261.684294 
L 138.891561 261.845654 
L 142.423508 261.15699 
L 143.306494 260.688852 
L 144.189481 259.960901 
L 145.072468 258.949745 
L 146.396948 256.964704 
L 147.059188 255.677467 
L 149.487401 249.56241 
L 151.694867 244.078302 
L 153.019347 241.43333 
L 154.123081 239.728229 
L 155.226814 238.493197 
L 157.213534 236.790106 
L 159.200254 234.941057 
L 163.173693 231.201274 
L 164.71892 230.117386 
L 166.264147 229.297651 
L 167.809373 228.724612 
L 170.01684 227.9934 
L 171.782813 226.726975 
L 173.107293 226.000359 
L 174.431773 225.506151 
L 175.756253 225.258866 
L 175.977 225.241228 
L 179.067453 223.136811 
L 180.391933 222.566976 
L 181.495666 222.32211 
L 182.820146 222.281826 
L 189.001052 222.686488 
L 194.519719 222.424822 
L 195.402705 222.123074 
L 196.506439 221.468906 
L 197.610172 220.586869 
L 198.713905 219.328585 
L 199.817638 217.761733 
L 200.921372 215.860134 
L 202.466598 212.673399 
L 206.440038 204.110706 
L 207.543771 202.301682 
L 208.868251 200.590187 
L 210.192731 199.240345 
L 211.075718 198.607646 
L 211.958704 198.220053 
L 212.841691 198.102358 
L 213.724678 198.249245 
L 215.490651 198.933025 
L 216.373638 199.490382 
L 217.698117 200.686115 
L 219.243344 202.194287 
L 220.347077 202.964125 
L 221.450811 204.007256 
L 222.775291 205.608078 
L 224.09977 207.355876 
L 224.76201 207.750003 
L 226.08649 207.872762 
L 228.956197 203.951887 
L 230.501423 202.227632 
L 231.38441 201.618174 
L 232.04665 201.419851 
L 232.929637 201.418663 
L 234.254117 201.624136 
L 234.69561 201.270511 
L 236.903077 199.047875 
L 237.786063 198.411932 
L 238.66905 198.061271 
L 239.552036 198.020623 
L 241.097263 198.280685 
L 243.525476 198.893852 
L 244.408463 198.16966 
L 247.719663 195.193408 
L 249.264889 193.83886 
L 250.368623 192.513614 
L 252.576089 189.774854 
L 253.679822 188.72792 
L 254.783556 187.938665 
L 255.666542 187.555154 
L 257.211769 187.174305 
L 258.977742 186.727431 
L 260.302222 186.314599 
L 261.185209 186.244611 
L 262.068195 186.35733 
L 262.951182 186.704847 
L 263.613422 187.210749 
L 264.275662 187.96465 
L 265.158648 189.27073 
L 266.262382 191.27511 
L 266.703875 191.95892 
L 268.028355 192.658109 
L 269.573582 192.875361 
L 271.560301 193.086957 
L 273.105528 193.549015 
L 274.650755 194.247307 
L 275.754488 194.944725 
L 276.858221 195.936662 
L 278.182701 197.553086 
L 280.390168 200.743859 
L 281.493901 202.21479 
L 283.259874 204.127174 
L 284.805101 205.593354 
L 285.908834 206.340177 
L 287.012567 206.806768 
L 289.440781 207.40739 
L 290.544514 207.421849 
L 290.765261 207.398121 
L 291.868994 206.38061 
L 293.41422 204.96015 
L 294.297207 204.427464 
L 294.959447 204.243745 
L 295.621687 204.278093 
L 296.504674 204.617826 
L 297.829153 205.402674 
L 299.153633 206.455225 
L 300.257367 207.623891 
L 301.140353 208.929786 
L 301.802593 210.307657 
L 303.34782 214.118687 
L 303.568567 214.258405 
L 304.451553 213.445518 
L 304.893046 212.679399 
L 306.438273 209.136473 
L 309.087233 202.508628 
L 310.190966 198.48802 
L 311.736193 193.024768 
L 313.281419 188.444041 
L 315.488886 182.69225 
L 316.151126 181.472571 
L 317.034113 180.309853 
L 318.137846 178.933618 
L 319.020832 177.699705 
L 319.462326 176.253672 
L 321.228299 169.334384 
L 322.773526 162.144974 
L 324.980992 151.73046 
L 329.395925 133.921349 
L 331.824138 124.607517 
L 334.031605 117.390267 
L 335.797578 111.356454 
L 337.342805 105.156127 
L 339.329525 97.131793 
L 341.536991 89.287597 
L 343.523711 83.100598 
L 343.965205 81.855906 
L 343.965205 81.855906 
" clip-path="url(#p0d74b81a32)" style="fill: none; stroke-dasharray: 9,3.375; stroke-dashoffset: 0; stroke: #edd1cb; stroke-width: 2.25"/>
   </g>
   <g id="line2d_14">
    <path d="M 123.439295 260.647072 
L 124.101535 269.547665 
L 124.543029 272.749033 
L 124.984522 274.368223 
L 125.426015 275.35559 
L 125.646762 275.461305 
L 126.971242 274.160248 
L 128.074975 272.344746 
L 131.606922 265.417694 
L 132.931402 263.233197 
L 134.476628 260.209618 
L 137.125588 255.034019 
L 141.540521 246.030659 
L 143.085748 243.469194 
L 144.630974 241.340587 
L 145.513961 240.107146 
L 146.838441 238.046672 
L 153.240094 229.483332 
L 155.006067 227.785442 
L 156.551294 226.337555 
L 160.08324 222.592091 
L 161.849214 221.10201 
L 163.615187 219.950005 
L 165.160413 219.220717 
L 168.69236 217.958171 
L 170.237586 217.324805 
L 172.00356 215.901225 
L 174.431773 214.284644 
L 176.418493 213.200826 
L 178.184466 212.502594 
L 181.937159 211.084738 
L 183.703132 210.059077 
L 185.910599 208.482061 
L 189.001052 205.243813 
L 190.767025 203.000137 
L 194.961212 197.487099 
L 199.376145 193.110535 
L 201.142118 191.838993 
L 202.466598 190.909674 
L 203.791078 189.162805 
L 205.115558 187.830583 
L 206.219291 187.006907 
L 207.543771 186.22849 
L 208.647505 185.552031 
L 209.751238 184.561073 
L 210.634224 183.498795 
L 211.737958 181.842749 
L 215.269904 176.321355 
L 216.373638 174.963105 
L 217.477371 173.929104 
L 218.360357 173.39091 
L 219.243344 173.156157 
L 219.905584 173.194878 
L 220.567824 173.448943 
L 221.450811 174.057858 
L 222.333797 174.939994 
L 223.437531 176.323141 
L 225.42425 179.301147 
L 228.73545 184.708185 
L 230.72217 187.730671 
L 232.267397 189.771747 
L 233.150383 190.63942 
L 234.03337 191.225636 
L 234.69561 191.449178 
L 235.35785 191.462481 
L 236.02009 191.263754 
L 236.903077 190.744876 
L 238.00681 189.855544 
L 239.110543 188.718793 
L 240.435023 187.100442 
L 242.421743 184.371093 
L 244.187716 181.834555 
L 246.836676 178.206485 
L 247.719663 176.585575 
L 251.030862 169.935666 
L 252.134596 168.473346 
L 253.238329 167.33568 
L 254.121316 166.818631 
L 254.783556 166.706254 
L 255.445796 166.812099 
L 256.328782 167.210712 
L 258.094755 168.382221 
L 259.860729 169.78821 
L 262.068195 171.746551 
L 264.054915 170.616776 
L 265.158648 170.276102 
L 266.262382 170.209535 
L 268.249102 170.330291 
L 270.898061 170.643816 
L 271.781048 169.948695 
L 272.443288 169.673952 
L 273.105528 169.636464 
L 273.547021 169.669577 
L 274.650755 168.559943 
L 275.975235 166.910262 
L 277.299715 164.901212 
L 278.403448 162.865215 
L 279.727928 159.957234 
L 282.597634 153.504107 
L 283.480621 152.116715 
L 284.142861 151.436137 
L 284.805101 151.080854 
L 285.467341 151.036882 
L 286.129581 151.269883 
L 287.012567 151.881562 
L 288.116301 152.923687 
L 289.220034 154.308169 
L 290.103021 155.721313 
L 291.206754 157.963961 
L 293.193474 162.934346 
L 294.7387 167.1701 
L 297.166914 174.640708 
L 297.608407 176.038762 
L 298.0499 176.512343 
L 299.153633 177.123481 
L 300.919607 177.864357 
L 303.127073 178.656891 
L 304.230807 179.430325 
L 304.893046 179.964047 
L 305.99678 180.191259 
L 307.32126 180.605099 
L 308.204246 181.114485 
L 308.64574 181.420827 
L 309.30798 181.207357 
L 309.97022 181.216458 
L 311.294699 181.65826 
L 312.619179 182.381956 
L 314.164406 183.356477 
L 314.605899 183.099673 
L 316.151126 181.762791 
L 317.475606 180.418913 
L 318.358592 178.957737 
L 319.020832 178.208619 
L 319.903819 177.621525 
L 322.332032 176.220074 
L 322.552779 175.905689 
L 326.084725 166.052006 
L 329.175179 157.39131 
L 330.720405 152.363388 
L 333.148618 144.575371 
L 334.031605 138.573743 
L 335.576832 128.493443 
L 336.901312 121.398729 
L 340.874751 101.042028 
L 343.965205 85.453137 
L 343.965205 85.453137 
" clip-path="url(#p0d74b81a32)" style="fill: none; stroke-dasharray: 2.25,2.25; stroke-dashoffset: 0; stroke: #edd1cb; stroke-width: 2.25"/>
   </g>
   <g id="line2d_15">
    <path d="M 123.439295 269.954675 
L 123.880789 273.269974 
L 124.322282 274.870381 
L 124.984522 276.364882 
L 125.646762 276.688841 
L 125.867509 276.624886 
L 126.529749 275.761881 
L 126.750495 275.493224 
L 127.191989 274.278812 
L 130.503188 261.364432 
L 131.606922 258.086229 
L 132.931402 254.748723 
L 134.918122 250.688315 
L 136.463348 247.974226 
L 137.346335 246.792168 
L 138.670815 245.439389 
L 139.995295 244.421122 
L 141.319775 243.721443 
L 142.423508 243.324306 
L 143.747988 242.858313 
L 144.851721 242.1995 
L 145.955454 241.340067 
L 147.942174 237.777638 
L 150.811881 232.790609 
L 152.577854 230.15998 
L 154.785321 227.306764 
L 157.875774 223.788779 
L 162.290707 219.318465 
L 165.601907 216.368067 
L 167.588627 214.86134 
L 169.133853 213.971953 
L 170.458333 213.458479 
L 171.782813 213.176356 
L 173.548786 213.064102 
L 178.184466 212.904463 
L 181.716413 212.532517 
L 182.157906 212.343595 
L 183.703132 211.238996 
L 184.806866 209.89243 
L 186.131346 207.873138 
L 187.235079 206.542252 
L 188.338812 205.516584 
L 189.442546 204.752111 
L 190.767025 204.125895 
L 193.415985 203.038774 
L 194.519719 202.256726 
L 195.623452 201.179282 
L 196.947932 199.527949 
L 198.051665 197.920256 
L 202.025105 189.89487 
L 204.453318 185.107277 
L 205.998545 182.546749 
L 207.102278 181.174766 
L 209.751238 178.06521 
L 210.854971 176.477617 
L 211.958704 174.47946 
L 213.503931 171.123588 
L 215.269904 167.331597 
L 216.594384 165.044013 
L 217.698117 163.582981 
L 219.022597 162.240153 
L 220.126331 161.431201 
L 221.230064 160.896131 
L 222.775291 160.459336 
L 225.42425 159.731125 
L 225.865744 159.452456 
L 227.631717 157.344339 
L 229.176944 155.117677 
L 230.501423 152.815801 
L 231.825903 149.999308 
L 232.929637 147.191799 
L 234.254117 143.241341 
L 236.02009 137.238521 
L 239.110543 126.537182 
L 240.65577 122.108376 
L 241.759503 119.527136 
L 242.64249 117.952814 
L 243.525476 116.829662 
L 244.408463 116.103646 
L 245.070703 115.847466 
L 245.953689 115.822751 
L 247.057423 116.039246 
L 248.602649 116.574864 
L 250.589369 117.426982 
L 251.913849 113.803052 
L 253.679822 109.306882 
L 255.225049 105.969128 
L 256.108036 104.496075 
L 256.770276 103.720068 
L 257.432515 103.276506 
L 258.094755 103.151414 
L 258.756995 103.333539 
L 259.419235 103.811981 
L 260.302222 104.813937 
L 261.626702 106.859369 
L 264.275662 111.559467 
L 265.379395 113.46105 
L 267.366115 115.456318 
L 269.573582 118.114379 
L 271.560301 121.001548 
L 272.664035 123.000676 
L 273.767768 125.662919 
L 274.871501 128.963836 
L 276.637475 133.886914 
L 280.610914 144.677164 
L 282.156141 144.599731 
L 284.584354 144.85938 
L 286.571074 144.845768 
L 290.323767 145.459843 
L 291.648247 145.589599 
L 293.193474 145.51067 
L 294.7387 145.167268 
L 297.608407 144.464134 
L 298.270647 144.524922 
L 298.932887 143.718117 
L 303.568567 137.78704 
L 304.230807 137.180016 
L 305.113793 136.664598 
L 307.9835 135.148056 
L 310.63246 132.375283 
L 311.736193 131.607083 
L 313.281419 131.001844 
L 315.047393 130.526977 
L 315.930379 130.507578 
L 317.034113 130.697605 
L 318.358592 130.877322 
L 320.345312 130.930705 
L 321.228299 131.29124 
L 322.111286 131.947224 
L 322.994272 133.027738 
L 323.656512 134.161183 
L 324.760245 136.487597 
L 326.305472 139.839732 
L 326.526219 139.886233 
L 328.292192 137.856107 
L 328.733685 137.419836 
L 332.044885 121.562621 
L 333.369365 116.990415 
L 335.135338 111.33032 
L 337.122058 104.770905 
L 338.225791 102.113756 
L 339.771018 98.607347 
L 340.654005 96.0594 
L 341.757738 92.258756 
L 343.523711 85.398114 
L 343.965205 83.55177 
L 343.965205 83.55177 
" clip-path="url(#p0d74b81a32)" style="fill: none; stroke-dasharray: 6.75,2.8125,3.375,2.8125; stroke-dashoffset: 0; stroke: #edd1cb; stroke-width: 2.25"/>
   </g>
   <g id="line2d_16">
    <path d="M 123.439295 287.146955 
L 123.880789 285.957335 
L 125.205269 282.41694 
L 126.529749 279.532994 
L 128.295722 276.254077 
L 130.282442 273.021328 
L 132.269162 270.222686 
L 134.035135 268.095077 
L 136.021855 266.063072 
L 137.787828 264.549227 
L 139.774548 263.145596 
L 145.734708 259.271532 
L 148.162921 256.959078 
L 151.474121 253.578766 
L 153.681587 251.027405 
L 156.109801 247.853311 
L 160.08324 242.230975 
L 162.511454 238.977725 
L 164.498173 236.662516 
L 166.484893 234.6821 
L 168.471613 233.023998 
L 170.458333 231.641938 
L 172.6658 230.366434 
L 178.184466 227.324475 
L 181.937159 225.032762 
L 185.027612 223.516586 
L 188.559559 221.92455 
L 190.325532 221.390742 
L 192.532999 221.004392 
L 193.857479 220.730687 
L 195.844199 219.014265 
L 198.051665 216.80737 
L 198.934652 215.803962 
L 202.025105 210.07231 
L 205.115558 204.496316 
L 207.102278 201.394286 
L 208.647505 199.37138 
L 209.971985 197.994799 
L 211.075718 197.152458 
L 212.179451 196.596497 
L 213.062438 196.386382 
L 213.945424 196.379111 
L 215.269904 196.610989 
L 217.256624 197.199189 
L 221.230064 198.471728 
L 223.216784 198.791435 
L 224.76201 198.792998 
L 225.644997 198.633125 
L 227.852464 197.101181 
L 237.786063 189.550099 
L 239.552036 187.976721 
L 243.966969 183.721779 
L 245.291449 182.798551 
L 246.395183 182.260089 
L 247.278169 182.021595 
L 248.161156 181.988878 
L 249.044143 182.174227 
L 250.147876 182.572864 
L 251.251609 182.54716 
L 252.576089 182.758506 
L 255.004302 183.479783 
L 256.549529 183.854263 
L 257.653262 183.871363 
L 258.536249 183.69111 
L 259.419235 183.324039 
L 260.522969 182.537758 
L 264.054915 179.640535 
L 264.937902 179.323341 
L 265.600142 179.319145 
L 266.262382 179.543532 
L 266.924622 179.988415 
L 267.807608 180.901352 
L 268.911342 182.413936 
L 270.235822 184.557682 
L 271.339555 186.651115 
L 272.664035 189.649449 
L 274.209261 193.790333 
L 276.858221 201.69125 
L 280.169421 211.752539 
L 280.831661 213.499932 
L 282.156141 215.094744 
L 283.039128 215.901902 
L 283.922114 216.464352 
L 285.025847 216.856557 
L 288.116301 217.662763 
L 288.778541 217.255334 
L 290.103021 216.519493 
L 291.4275 216.004957 
L 296.283927 214.746663 
L 297.166914 214.709803 
L 298.0499 214.861487 
L 299.815873 215.51994 
L 303.34782 217.08042 
L 304.230807 217.776686 
L 305.555286 219.1926 
L 306.65902 220.5005 
L 307.762753 220.836198 
L 310.853206 222.168848 
L 315.709633 224.437651 
L 317.254859 224.828505 
L 318.137846 225.010715 
L 318.358592 224.868405 
L 319.020832 223.688824 
L 321.228299 218.387841 
L 322.332032 216.306438 
L 323.215019 215.11974 
L 324.098006 214.285034 
L 324.318752 214.12368 
L 325.201739 212.710741 
L 326.967712 204.797024 
L 331.382645 185.357065 
L 335.576832 166.936869 
L 337.563552 157.345534 
L 340.212511 145.905742 
L 343.082218 134.266176 
L 343.965205 130.973085 
L 343.965205 130.973085 
" clip-path="url(#p0d74b81a32)" style="fill: none; stroke: #a9678f; stroke-width: 2.25; stroke-linecap: square"/>
   </g>
   <g id="line2d_17">
    <path d="M 123.439295 285.988976 
L 123.660042 285.815818 
L 124.101535 283.134295 
L 124.763775 279.485513 
L 125.426015 276.951186 
L 126.088255 275.349062 
L 126.750495 274.281767 
L 127.854229 272.871866 
L 128.957962 270.542101 
L 129.840948 269.198862 
L 130.723935 268.274039 
L 131.606922 267.702231 
L 132.489908 267.412262 
L 133.152148 267.345519 
L 134.035135 267.52828 
L 135.359615 268.11526 
L 137.346335 266.215821 
L 139.112308 264.801165 
L 140.436788 263.962471 
L 141.319775 263.612551 
L 142.202761 263.480176 
L 143.085748 263.472435 
L 144.189481 263.734198 
L 146.396948 264.434339 
L 147.721428 264.589023 
L 148.383668 264.436726 
L 149.928894 262.657771 
L 151.253374 261.436457 
L 152.577854 260.478924 
L 153.902334 259.772573 
L 155.226814 259.339026 
L 155.668307 259.180419 
L 157.213534 257.541696 
L 159.200254 255.625405 
L 162.290707 250.620229 
L 164.71892 247.134348 
L 167.36788 243.761016 
L 170.67908 239.923028 
L 173.32804 237.127696 
L 175.31476 235.320427 
L 177.080733 233.993275 
L 178.846706 232.943567 
L 180.612679 232.15482 
L 181.054173 231.912366 
L 184.144626 228.829028 
L 186.572839 226.693632 
L 188.118066 225.590876 
L 189.221799 224.893755 
L 190.987772 223.111656 
L 192.753745 221.638583 
L 194.519719 220.449415 
L 196.947932 219.109968 
L 199.596892 217.898116 
L 200.921372 217.464367 
L 202.245852 217.237879 
L 204.011825 217.19394 
L 208.426758 217.306589 
L 210.192731 217.573374 
L 212.179451 218.109875 
L 214.607664 219.000694 
L 216.594384 219.717696 
L 218.360357 219.418453 
L 219.905584 219.411037 
L 221.230064 219.601874 
L 222.775291 219.921967 
L 226.08649 219.890281 
L 228.956197 220.147528 
L 230.280677 220.31106 
L 230.501423 220.223328 
L 231.825903 218.33271 
L 232.929637 217.128023 
L 234.03337 216.238749 
L 235.35785 215.481012 
L 236.903077 214.856225 
L 238.227556 214.439824 
L 242.200996 212.065897 
L 243.30473 211.720359 
L 244.187716 211.666556 
L 245.070703 211.842233 
L 245.953689 212.261758 
L 247.057423 213.087917 
L 248.161156 214.189728 
L 249.485636 215.850444 
L 250.810116 217.838873 
L 251.913849 219.454508 
L 253.900569 221.60125 
L 255.445796 222.978484 
L 256.770276 223.931407 
L 258.315502 223.506154 
L 259.860729 221.506398 
L 261.626702 219.276774 
L 262.951182 217.990363 
L 264.054915 217.248413 
L 264.937902 216.901302 
L 265.820888 216.792968 
L 266.703875 216.936135 
L 267.807608 217.255422 
L 268.911342 217.387616 
L 270.015075 217.776349 
L 271.118808 218.456736 
L 272.001795 219.244114 
L 273.105528 220.581709 
L 274.430008 222.652601 
L 276.637475 225.890592 
L 278.182701 227.814969 
L 279.507181 229.104395 
L 281.493901 230.925673 
L 282.818381 231.98159 
L 283.922114 232.552912 
L 284.363607 232.64917 
L 289.661527 226.996064 
L 290.765261 225.492371 
L 292.08974 223.164296 
L 294.297207 218.742182 
L 296.06318 214.588333 
L 297.829153 210.996541 
L 299.153633 208.7767 
L 300.919607 206.336654 
L 302.244087 204.872691 
L 304.01006 203.363381 
L 305.555286 201.995819 
L 306.879766 200.391226 
L 307.542006 199.974011 
L 308.204246 199.847736 
L 308.866486 200.017271 
L 309.528726 200.466986 
L 310.411713 201.40975 
L 311.515446 202.615441 
L 313.943659 205.496641 
L 314.605899 206.281348 
L 315.047393 206.561531 
L 316.371873 205.961812 
L 318.800086 204.557839 
L 319.903819 203.649615 
L 321.007552 202.374174 
L 322.332032 200.501136 
L 323.215019 199.060135 
L 325.863979 193.537813 
L 329.175179 187.423383 
L 330.720405 183.647133 
L 333.369365 176.399809 
L 335.576832 170.676997 
L 337.563552 165.68201 
L 338.005045 164.293562 
L 341.978485 150.504731 
L 343.965205 144.079462 
L 343.965205 144.079462 
" clip-path="url(#p0d74b81a32)" style="fill: none; stroke-dasharray: 9,3.375; stroke-dashoffset: 0; stroke: #a9678f; stroke-width: 2.25"/>
   </g>
   <g id="line2d_18">
    <path d="M 123.439295 285.081452 
L 123.660042 285.220414 
L 125.867509 277.91662 
L 126.529749 276.357271 
L 127.191989 275.406407 
L 127.412735 275.170022 
L 127.854229 274.103145 
L 128.957962 271.346516 
L 129.840948 269.614173 
L 130.723935 268.37672 
L 131.386175 267.862244 
L 132.048415 267.611238 
L 134.918122 261.050094 
L 136.463348 258.673114 
L 137.787828 256.485524 
L 139.112308 253.845328 
L 141.540521 248.897116 
L 142.423508 247.576801 
L 143.306494 246.64029 
L 144.189481 246.065954 
L 145.072468 245.825611 
L 146.176201 245.86861 
L 147.279934 246.26124 
L 148.825161 246.814397 
L 149.708147 246.924762 
L 150.370387 246.810288 
L 151.253374 246.138345 
L 152.136361 245.173722 
L 153.681587 242.987108 
L 157.43428 237.61121 
L 158.979507 235.847368 
L 161.628467 233.277296 
L 165.38116 229.558677 
L 169.3546 223.336171 
L 170.01684 222.28873 
L 173.548786 214.972307 
L 176.418493 209.807359 
L 181.274919 201.566737 
L 183.261639 198.537479 
L 184.586119 196.885389 
L 185.910599 195.613444 
L 187.014332 194.850743 
L 188.118066 194.332072 
L 189.442546 193.977262 
L 190.767025 193.852505 
L 192.532999 193.930375 
L 206.440038 195.434205 
L 208.426758 195.8391 
L 209.971985 196.381911 
L 211.517211 197.167638 
L 212.179451 197.568909 
L 212.400198 197.545522 
L 215.711398 194.481386 
L 219.464091 190.683118 
L 222.554544 187.675048 
L 226.527984 184.188126 
L 230.280677 181.207919 
L 232.04665 179.971616 
L 234.69561 178.537028 
L 236.240837 177.918193 
L 237.565316 177.609848 
L 238.448303 177.48247 
L 239.552036 176.770458 
L 240.65577 176.310917 
L 241.759503 176.117083 
L 242.863236 176.185298 
L 243.966969 176.495088 
L 245.291449 177.144608 
L 246.836676 178.186725 
L 250.810116 181.299897 
L 253.679822 183.391427 
L 255.445796 184.44232 
L 256.991022 185.132226 
L 258.315502 185.494381 
L 259.860729 185.641418 
L 262.288942 185.593172 
L 263.834169 185.323497 
L 265.379395 184.792813 
L 268.028355 183.536986 
L 269.794328 182.777101 
L 270.898061 182.557113 
L 272.222541 182.561103 
L 275.092248 183.169379 
L 275.754488 183.395846 
L 276.858221 184.125621 
L 278.182701 185.005552 
L 280.390168 186.029387 
L 281.935394 186.783978 
L 283.039128 187.566005 
L 284.142861 188.66004 
L 284.584354 189.104094 
L 285.908834 189.769525 
L 287.233314 190.677927 
L 288.778541 192.002646 
L 289.440781 192.510215 
L 291.868994 193.968593 
L 294.517954 195.599608 
L 296.06318 196.312319 
L 298.0499 197.030067 
L 298.491393 196.750986 
L 300.03662 195.583795 
L 301.3611 194.859998 
L 302.464833 194.488403 
L 303.34782 194.37349 
L 304.230807 194.460306 
L 304.893046 194.74608 
L 305.555286 195.245021 
L 306.438273 196.207485 
L 307.542006 197.775857 
L 309.087233 200.459177 
L 309.749473 201.65102 
L 310.63246 201.706897 
L 313.943659 201.821439 
L 314.605899 200.693373 
L 317.696353 195.311407 
L 322.332032 187.373521 
L 326.746965 179.595186 
L 327.850699 178.095637 
L 328.954432 176.957219 
L 333.148618 173.595691 
L 334.252352 172.994562 
L 336.459818 171.923685 
L 337.342805 171.20715 
L 338.225791 170.158874 
L 339.329525 168.404475 
L 341.316245 164.664412 
L 343.965205 157.326786 
L 343.965205 157.326786 
" clip-path="url(#p0d74b81a32)" style="fill: none; stroke-dasharray: 2.25,2.25; stroke-dashoffset: 0; stroke: #a9678f; stroke-width: 2.25"/>
   </g>
   <g id="line2d_19">
    <path d="M 123.439295 286.251901 
L 123.660042 285.961828 
L 124.322282 283.370373 
L 124.984522 281.770899 
L 125.646762 280.69409 
L 126.750495 279.406047 
L 128.295722 277.846592 
L 130.282442 276.203576 
L 131.606922 275.277704 
L 133.593642 273.962383 
L 137.567081 268.966948 
L 138.891561 267.82562 
L 139.995295 267.009992 
L 141.099028 266.435985 
L 142.423508 265.916809 
L 144.630974 263.750988 
L 145.955454 262.70279 
L 147.500681 261.7391 
L 149.045908 261.01508 
L 151.253374 260.033188 
L 156.109801 256.931968 
L 159.421 254.507091 
L 162.06996 252.33511 
L 164.498173 250.096584 
L 167.36788 247.075215 
L 169.133853 245.927051 
L 170.899826 245.021951 
L 172.445053 244.459121 
L 174.211026 243.916062 
L 175.094013 243.065579 
L 178.625959 239.045897 
L 181.716413 235.928887 
L 182.157906 235.429853 
L 185.469106 229.855203 
L 194.519719 215.177872 
L 203.791078 200.912998 
L 205.557051 198.602913 
L 206.881531 197.187914 
L 208.206011 196.092028 
L 209.530491 195.317845 
L 210.854971 194.84475 
L 212.179451 194.64702 
L 213.503931 194.705481 
L 214.828411 195.008583 
L 216.152891 195.545129 
L 217.698117 196.436078 
L 219.684837 197.886413 
L 220.788571 198.616325 
L 224.541264 200.589766 
L 230.280677 203.407916 
L 232.04665 204.617267 
L 240.214276 210.737607 
L 242.200996 211.867276 
L 244.187716 212.722192 
L 246.836676 213.667426 
L 249.044143 212.991268 
L 250.147876 212.900227 
L 250.810116 213.024782 
L 251.472356 213.348266 
L 252.355342 214.078431 
L 253.459076 215.338587 
L 254.783556 217.230615 
L 256.549529 220.159191 
L 264.275662 233.680223 
L 266.041635 237.604773 
L 266.483128 238.363335 
L 267.366115 238.629764 
L 268.249102 238.684452 
L 269.573582 238.486344 
L 271.339555 237.998797 
L 271.781048 237.624083 
L 272.884781 236.597598 
L 273.988515 235.913241 
L 275.312995 235.396287 
L 276.195981 235.129325 
L 277.961954 233.179684 
L 279.286434 231.347718 
L 280.831661 228.754159 
L 283.039128 224.501063 
L 283.922114 222.564648 
L 285.688087 218.727701 
L 287.233314 215.886039 
L 288.557794 213.886994 
L 289.661527 212.250245 
L 290.986007 210.214675 
L 292.310487 208.544322 
L 294.07646 206.791484 
L 295.842434 205.339255 
L 296.946167 204.658197 
L 297.829153 204.409472 
L 298.71214 204.399829 
L 299.815873 204.608804 
L 301.140353 203.904531 
L 302.244087 203.60151 
L 303.127073 203.64402 
L 304.01006 203.99318 
L 304.893046 204.6564 
L 305.776033 205.659716 
L 306.879766 207.261109 
L 307.762753 208.687474 
L 308.424993 208.813777 
L 310.411713 209.145397 
L 311.515446 209.524047 
L 312.619179 210.140348 
L 313.943659 211.12893 
L 315.047393 212.271846 
L 316.151126 213.744528 
L 317.696353 216.259198 
L 323.877259 226.843271 
L 324.760245 227.829819 
L 325.201739 227.543193 
L 326.084725 226.617707 
L 327.629952 224.620991 
L 329.175179 222.015772 
L 332.486378 217.06163 
L 333.810858 213.059922 
L 335.576832 206.952122 
L 336.680565 202.585923 
L 340.433258 185.484052 
L 343.744458 167.953774 
L 343.965205 166.874833 
L 343.965205 166.874833 
" clip-path="url(#p0d74b81a32)" style="fill: none; stroke-dasharray: 6.75,2.8125,3.375,2.8125; stroke-dashoffset: 0; stroke: #a9678f; stroke-width: 2.25"/>
   </g>
   <g id="line2d_20">
    <path d="M 123.439295 286.979845 
L 123.660042 286.50555 
L 124.543029 281.54228 
L 125.646762 276.741295 
L 127.191989 271.262276 
L 128.516469 267.351759 
L 129.840948 264.035767 
L 131.165428 261.23679 
L 132.710655 258.509861 
L 134.035135 256.628347 
L 135.138868 255.393399 
L 136.242601 254.453342 
L 137.567081 253.643739 
L 139.333055 252.878078 
L 142.202761 251.6468 
L 142.423508 251.529239 
L 144.851721 248.655637 
L 148.825161 243.909445 
L 150.811881 241.847415 
L 152.798601 240.111363 
L 154.785321 238.687848 
L 160.303987 234.997668 
L 162.290707 233.292562 
L 164.277427 231.284168 
L 165.822653 229.464892 
L 170.237586 223.916822 
L 171.782813 222.242368 
L 173.107293 221.116599 
L 174.431773 220.302336 
L 175.756253 219.787208 
L 177.080733 219.521316 
L 178.625959 219.446228 
L 181.054173 219.60322 
L 182.599399 219.615683 
L 183.703132 218.754383 
L 190.767025 212.899857 
L 192.753745 211.719263 
L 194.078225 211.118698 
L 197.168678 209.865311 
L 201.142118 208.411701 
L 202.025105 208.091618 
L 204.453318 204.810588 
L 206.440038 202.48473 
L 208.426758 200.518982 
L 210.634224 198.687107 
L 220.126331 191.300271 
L 222.554544 189.352163 
L 225.865744 187.266182 
L 233.150383 182.850733 
L 235.35785 181.149089 
L 238.227556 178.587974 
L 246.174436 171.16588 
L 248.161156 168.799327 
L 253.017582 162.811884 
L 255.666542 159.813649 
L 257.432515 158.161509 
L 258.756995 157.199923 
L 260.081475 156.507582 
L 261.405955 156.088111 
L 262.730435 155.926429 
L 264.054915 155.991826 
L 265.600142 156.296119 
L 270.677315 157.54687 
L 275.975235 158.116047 
L 277.078968 158.472723 
L 278.182701 159.07722 
L 279.286434 159.950196 
L 280.610914 161.322462 
L 286.350327 167.768254 
L 287.895554 169.089878 
L 291.648247 172.040926 
L 292.972727 173.556908 
L 294.297207 175.451435 
L 295.621687 177.824526 
L 297.166914 181.138011 
L 299.153633 186.037643 
L 300.478113 189.753271 
L 302.244087 195.004515 
L 304.230807 201.14432 
L 310.63246 220.837183 
L 314.164406 228.009227 
L 314.605899 228.975331 
L 315.709633 229.740117 
L 316.813366 230.762095 
L 317.917099 232.123793 
L 322.552779 238.122305 
L 323.435766 238.296562 
L 324.318752 238.709195 
L 325.201739 239.341609 
L 326.305472 240.367709 
L 327.188459 239.979113 
L 327.629952 239.069642 
L 329.175179 234.92384 
L 333.810858 219.477601 
L 335.797578 211.860027 
L 337.784298 203.126407 
L 340.654005 190.243162 
L 341.978485 185.240272 
L 343.302965 181.040377 
L 343.965205 179.135492 
L 343.965205 179.135492 
" clip-path="url(#p0d74b81a32)" style="fill: none; stroke-dasharray: 11.25,2.25,2.25,2.25; stroke-dashoffset: 0; stroke: #a9678f; stroke-width: 2.25"/>
   </g>
   <g id="line2d_21">
    <path d="M 123.439295 287.145235 
L 123.660042 286.917616 
L 125.646762 282.886634 
L 127.191989 280.316486 
L 129.399455 276.84772 
L 131.606922 272.671197 
L 132.931402 270.611557 
L 134.035135 269.326279 
L 134.918122 268.633733 
L 135.801108 268.254769 
L 136.684095 268.181289 
L 137.567081 268.387542 
L 138.450068 268.835087 
L 139.553801 269.452787 
L 142.644255 270.947842 
L 144.410228 271.743747 
L 150.811881 267.460454 
L 151.694867 266.638931 
L 153.460841 264.812354 
L 154.564574 263.650784 
L 155.889054 261.289096 
L 158.317267 257.088077 
L 159.862494 254.800566 
L 161.40772 252.900385 
L 162.952947 251.346833 
L 164.71892 249.88315 
L 168.03012 247.271709 
L 171.120573 244.371709 
L 173.769533 241.566121 
L 179.950439 234.838059 
L 181.495666 233.539732 
L 182.820146 232.688923 
L 184.144626 232.127275 
L 185.469106 231.813516 
L 186.793586 231.737336 
L 188.118066 231.918792 
L 189.663292 232.348187 
L 191.208519 232.99557 
L 192.974492 233.986853 
L 198.051665 237.049735 
L 199.155398 237.510058 
L 200.921372 236.419687 
L 204.674065 233.987181 
L 206.660785 233.0066 
L 207.985265 232.594289 
L 209.309745 232.42327 
L 210.634224 232.504759 
L 211.737958 232.790517 
L 212.841691 233.306025 
L 214.166171 234.203445 
L 215.711398 235.564705 
L 219.022597 238.642916 
L 220.347077 239.495112 
L 221.450811 239.918538 
L 222.554544 240.076611 
L 223.879024 240.002983 
L 226.74873 239.718707 
L 228.07321 239.853052 
L 229.39769 240.217303 
L 231.605157 240.944197 
L 236.240837 238.826 
L 237.786063 238.408152 
L 238.227556 238.263105 
L 239.552036 237.461644 
L 241.31801 236.700251 
L 244.849956 235.239522 
L 247.057423 234.378815 
L 248.161156 234.135814 
L 249.485636 234.05119 
L 251.030862 234.036571 
L 255.445796 230.083136 
L 260.081475 222.938161 
L 261.185209 221.778964 
L 262.068195 221.159468 
L 262.951182 220.81831 
L 263.834169 220.745887 
L 264.717155 220.948815 
L 265.820888 221.509071 
L 266.262382 221.76578 
L 267.807608 221.90367 
L 270.015075 222.368915 
L 271.560301 222.620971 
L 272.884781 222.185226 
L 273.988515 221.619948 
L 275.092248 220.789768 
L 276.195981 219.669903 
L 277.520461 218.026506 
L 279.727928 214.945906 
L 281.052408 212.377021 
L 282.376888 210.300307 
L 283.701368 208.669335 
L 285.025847 207.436229 
L 286.129581 206.648483 
L 287.012567 206.244562 
L 287.895554 206.122715 
L 290.103021 206.24861 
L 290.765261 206.417754 
L 291.648247 206.891985 
L 292.531234 207.692876 
L 293.634967 208.796397 
L 297.608407 212.516169 
L 298.71214 214.048856 
L 299.815873 215.933438 
L 301.3611 219.138413 
L 303.34782 223.327461 
L 307.32126 230.50809 
L 310.190966 236.22982 
L 310.63246 236.839242 
L 311.073953 237.158964 
L 317.034113 231.616427 
L 318.358592 229.754432 
L 319.903819 227.14837 
L 320.566059 225.70542 
L 322.111286 221.497226 
L 323.435766 217.311841 
L 324.539499 213.234526 
L 326.746965 204.178467 
L 330.278912 190.512285 
L 330.720405 188.403288 
L 332.927872 176.002479 
L 335.576832 159.672261 
L 338.667285 140.580012 
L 340.212511 132.326212 
L 341.536991 126.467926 
L 342.640725 122.633641 
L 343.965205 119.044184 
L 343.965205 119.044184 
" clip-path="url(#p0d74b81a32)" style="fill: none; stroke: #2d1e3e; stroke-width: 2.25; stroke-linecap: square"/>
   </g>
   <g id="line2d_22">
    <path d="M 123.439295 287.022071 
L 124.543029 284.0958 
L 125.867509 281.13127 
L 126.750495 279.148897 
L 130.944682 269.694791 
L 132.710655 266.156453 
L 134.255882 263.541732 
L 135.580362 261.720171 
L 136.904841 260.28673 
L 138.229321 259.198787 
L 139.333055 258.527623 
L 141.099028 257.794873 
L 142.644255 257.117013 
L 144.410228 255.853798 
L 146.176201 254.303948 
L 148.162921 252.219434 
L 151.032627 248.796407 
L 155.006067 244.065322 
L 157.213534 241.770412 
L 159.200254 240.032871 
L 162.952947 237.19065 
L 165.822653 235.068314 
L 168.03012 232.20649 
L 169.796093 230.310887 
L 172.00356 228.033228 
L 174.211026 224.753149 
L 176.418493 221.826331 
L 178.405213 219.523382 
L 180.171186 217.804933 
L 184.586119 214.129329 
L 187.235079 212.457086 
L 190.987772 210.377509 
L 193.636732 209.121384 
L 195.402705 208.498375 
L 197.168678 208.117427 
L 198.934652 207.98769 
L 200.700625 208.079249 
L 203.128838 208.473976 
L 206.881531 209.181107 
L 208.206011 209.142081 
L 208.868251 208.361072 
L 210.634224 205.871803 
L 212.841691 202.361815 
L 217.256624 194.993769 
L 219.022597 192.59563 
L 220.788571 190.599318 
L 222.333797 189.214935 
L 224.09977 187.924665 
L 225.644997 187.021471 
L 227.190224 186.405213 
L 228.293957 186.174259 
L 229.39769 186.15937 
L 230.72217 186.374639 
L 232.488143 186.933904 
L 234.69561 187.897552 
L 238.889796 190.067277 
L 241.538756 191.779952 
L 244.629209 193.804786 
L 244.849956 193.780392 
L 248.161156 191.72275 
L 249.927129 190.880628 
L 251.251609 190.495468 
L 252.134596 190.439241 
L 253.017582 190.573648 
L 254.121316 190.943316 
L 255.225049 191.628989 
L 256.108036 192.448657 
L 257.211769 193.862804 
L 258.315502 195.689968 
L 258.977742 196.865479 
L 260.522969 198.564911 
L 263.834169 202.4999 
L 265.158648 202.400567 
L 268.249102 202.026875 
L 269.573582 202.028583 
L 270.898061 202.263714 
L 275.533741 203.388197 
L 277.078968 203.374339 
L 278.624194 203.369156 
L 279.507181 203.570804 
L 280.390168 204.015371 
L 281.273154 204.779502 
L 282.376888 206.132209 
L 284.363607 209.063021 
L 286.350327 212.121504 
L 288.778541 215.368568 
L 290.103021 217.238071 
L 293.855714 223.03846 
L 294.7387 223.792394 
L 295.40094 224.054735 
L 296.283927 224.119501 
L 297.166914 223.985296 
L 298.0499 223.646048 
L 299.153633 222.981698 
L 300.478113 221.891931 
L 302.68558 219.597847 
L 306.217526 215.530499 
L 307.542006 214.505119 
L 308.424993 213.908435 
L 309.97022 211.751318 
L 313.060673 208.184414 
L 314.385153 206.973843 
L 315.488886 206.274407 
L 316.592619 205.843094 
L 317.696353 205.63354 
L 318.358592 204.586995 
L 319.241579 202.899009 
L 321.669792 195.997687 
L 323.215019 190.920749 
L 324.980992 184.264335 
L 328.954432 168.808536 
L 330.278912 164.845656 
L 331.382645 162.27769 
L 332.486378 160.293664 
L 332.707125 159.946115 
L 339.108778 137.019419 
L 340.654005 132.169249 
L 342.419978 124.922707 
L 343.744458 120.351677 
L 343.965205 119.668084 
L 343.965205 119.668084 
" clip-path="url(#p0d74b81a32)" style="fill: none; stroke-dasharray: 9,3.375; stroke-dashoffset: 0; stroke: #2d1e3e; stroke-width: 2.25"/>
   </g>
   <g id="line2d_23">
    <path d="M 123.439295 286.652593 
L 124.101535 284.370286 
L 125.426015 281.240964 
L 126.750495 278.525262 
L 128.074975 276.355212 
L 131.165428 272.164181 
L 132.269162 271.17698 
L 133.593642 270.287391 
L 135.580362 269.270873 
L 138.008575 267.987335 
L 139.553801 266.693545 
L 141.761268 264.691124 
L 143.968734 262.507651 
L 145.734708 261.071229 
L 151.694867 256.767973 
L 154.123081 254.819941 
L 161.40772 249.500913 
L 163.173693 248.66739 
L 165.160413 248.001067 
L 170.458333 246.44546 
L 172.886546 245.215706 
L 181.495666 240.395345 
L 183.923879 238.210794 
L 187.897319 234.605034 
L 189.001052 233.62235 
L 191.429265 230.103889 
L 193.415985 227.5682 
L 194.740465 226.213112 
L 195.844199 225.363433 
L 196.947932 224.794574 
L 198.051665 224.509959 
L 199.155398 224.456336 
L 200.700625 224.642351 
L 203.128838 225.212546 
L 204.453318 225.519706 
L 206.660785 224.376386 
L 207.323025 224.002042 
L 209.309745 221.059871 
L 211.075718 218.849455 
L 213.283184 216.460603 
L 216.152891 213.704453 
L 217.918864 212.26312 
L 219.243344 211.430896 
L 220.347077 210.93969 
L 221.450811 210.683885 
L 222.333797 210.677502 
L 223.437531 210.883964 
L 224.982757 211.435976 
L 225.42425 211.545273 
L 226.74873 210.54572 
L 228.07321 209.848408 
L 229.176944 209.508925 
L 230.501423 209.356119 
L 232.04665 209.44121 
L 233.812623 209.728521 
L 235.137103 208.806867 
L 236.68233 207.49667 
L 238.227556 205.883414 
L 239.552036 204.162174 
L 243.966969 198.067939 
L 244.849956 197.305846 
L 245.732943 196.80146 
L 246.836676 196.4694 
L 247.278169 196.288758 
L 248.381903 195.760437 
L 250.147876 195.261135 
L 251.693102 195.129017 
L 253.459076 195.042722 
L 255.887289 193.305217 
L 257.432515 191.741433 
L 259.419235 189.477247 
L 260.964462 188.10618 
L 262.288942 187.204682 
L 263.613422 186.583993 
L 264.937902 186.187784 
L 267.145368 185.809144 
L 268.028355 185.553595 
L 269.352835 184.365261 
L 270.456568 183.114238 
L 272.001795 180.991505 
L 274.209261 178.002168 
L 275.092248 177.117221 
L 275.975235 176.550094 
L 276.637475 176.377834 
L 277.299715 176.433135 
L 278.182701 176.699246 
L 278.844941 177.064155 
L 279.727928 177.84616 
L 280.831661 179.153774 
L 284.142861 183.447529 
L 285.908834 185.468731 
L 289.882274 190.269824 
L 292.310487 192.922532 
L 293.41422 192.496397 
L 294.517954 191.807063 
L 295.180194 191.260585 
L 295.621687 190.418435 
L 301.3611 176.787583 
L 303.34782 172.186911 
L 305.555286 167.276629 
L 307.9835 157.790398 
L 309.30798 153.48084 
L 310.411713 150.610085 
L 311.294699 148.869131 
L 312.177686 147.581075 
L 313.060673 146.623461 
L 313.943659 145.955867 
L 314.826646 145.599624 
L 315.488886 145.526803 
L 316.151126 145.658212 
L 316.813366 145.977115 
L 317.917099 146.756223 
L 319.020832 147.589318 
L 321.007552 148.839864 
L 322.773526 149.74712 
L 323.877259 149.909927 
L 324.539499 149.778628 
L 325.643232 148.198139 
L 327.850699 144.499669 
L 332.927872 135.873825 
L 333.369365 134.871808 
L 334.914592 130.426655 
L 336.680565 125.421193 
L 338.005045 122.264926 
L 341.536991 114.640769 
L 342.861471 110.981021 
L 343.965205 108.57221 
L 343.965205 108.57221 
" clip-path="url(#p0d74b81a32)" style="fill: none; stroke-dasharray: 2.25,2.25; stroke-dashoffset: 0; stroke: #2d1e3e; stroke-width: 2.25"/>
   </g>
   <g id="line2d_24">
    <path d="M 123.439295 287.082459 
L 124.101535 285.541744 
L 125.646762 282.898163 
L 126.750495 281.622326 
L 127.854229 280.700891 
L 129.840948 279.26462 
L 132.931402 274.659631 
L 135.801108 270.691839 
L 136.904841 269.475347 
L 138.008575 268.601638 
L 138.891561 268.149491 
L 139.774548 267.904931 
L 140.878281 267.861114 
L 141.982015 268.057863 
L 143.306494 268.32197 
L 144.851721 268.209519 
L 150.149641 268.116331 
L 151.253374 267.942998 
L 153.240094 266.860651 
L 157.213534 264.453809 
L 158.538014 263.688697 
L 159.641747 263.322167 
L 160.303987 263.10424 
L 161.628467 262.263588 
L 163.173693 261.372249 
L 165.160413 259.996625 
L 166.70564 259.197009 
L 167.809373 258.651404 
L 170.458333 256.873302 
L 171.782813 255.770428 
L 173.32804 254.038369 
L 176.418493 248.475114 
L 177.742973 245.977807 
L 178.846706 244.273058 
L 179.950439 242.939497 
L 181.054173 241.954574 
L 182.157906 241.267399 
L 183.482386 240.724054 
L 185.027612 240.332906 
L 187.014332 240.066382 
L 188.559559 240.085166 
L 189.884039 240.359832 
L 191.208519 240.879974 
L 192.753745 241.741122 
L 198.713905 245.39096 
L 202.245852 246.919253 
L 204.232571 247.721376 
L 207.102278 248.993067 
L 208.647505 248.82032 
L 210.192731 248.894868 
L 211.958704 249.032032 
L 213.945424 248.752528 
L 215.490651 248.731423 
L 217.035877 248.935157 
L 218.581104 249.38839 
L 220.126331 250.061141 
L 221.230064 250.718592 
L 222.333797 251.653965 
L 223.437531 252.918775 
L 225.203504 255.104183 
L 228.514704 258.945096 
L 228.73545 258.816936 
L 231.825903 254.455866 
L 233.37113 250.838718 
L 235.35785 245.563101 
L 236.903077 242.062457 
L 238.227556 239.197386 
L 239.772783 235.663601 
L 241.097263 233.133232 
L 242.421743 231.025473 
L 243.746223 229.309258 
L 246.395183 226.075683 
L 247.719663 223.630313 
L 253.679822 212.568136 
L 255.004302 210.649063 
L 256.108036 209.353552 
L 257.211769 208.388295 
L 258.315502 207.742714 
L 259.419235 207.388702 
L 260.743715 207.232826 
L 264.275662 207.160691 
L 265.379395 207.521808 
L 266.262382 207.812221 
L 268.249102 208.460492 
L 270.677315 209.251097 
L 272.884781 209.748656 
L 274.650755 209.884084 
L 276.416728 209.660637 
L 278.403448 209.43074 
L 279.507181 209.441629 
L 280.390168 209.627684 
L 281.714648 210.255099 
L 282.818381 210.825193 
L 283.922114 209.581081 
L 284.805101 208.845772 
L 285.467341 208.484156 
L 286.129581 208.307028 
L 286.791821 208.335798 
L 287.454061 208.613208 
L 288.116301 209.102538 
L 288.999287 210.087634 
L 290.103021 211.810974 
L 291.4275 214.37618 
L 292.972727 217.862466 
L 294.517954 221.826713 
L 295.842434 225.292338 
L 297.38766 228.957233 
L 300.03662 235.368544 
L 301.3611 237.938463 
L 302.68558 239.960399 
L 302.906327 240.192737 
L 303.789313 239.974137 
L 304.6723 239.487556 
L 305.113793 239.158147 
L 305.555286 238.450513 
L 307.762753 234.226675 
L 311.073953 227.455905 
L 311.956939 226.080444 
L 312.839926 225.055114 
L 313.722913 224.351721 
L 314.164406 223.928196 
L 315.930379 221.177598 
L 317.917099 217.636539 
L 319.683072 214.682419 
L 321.007552 212.903424 
L 324.318752 208.820674 
L 325.422485 204.891743 
L 326.967712 198.25511 
L 329.175179 188.634595 
L 330.499659 183.971962 
L 331.603392 180.807627 
L 332.265632 179.027538 
L 334.031605 172.824774 
L 335.797578 167.560623 
L 336.459818 165.515259 
L 338.446538 158.197808 
L 343.965205 138.536187 
L 343.965205 138.536187 
" clip-path="url(#p0d74b81a32)" style="fill: none; stroke-dasharray: 6.75,2.8125,3.375,2.8125; stroke-dashoffset: 0; stroke: #2d1e3e; stroke-width: 2.25"/>
   </g>
   <g id="line2d_25">
    <path d="M 123.439295 287.25 
L 124.101535 285.392075 
L 124.984522 283.698635 
L 126.309002 281.742267 
L 128.737215 278.284769 
L 130.282442 275.946022 
L 131.386175 274.639324 
L 132.489908 273.48324 
L 133.593642 271.878597 
L 134.697375 270.711724 
L 135.801108 269.696692 
L 137.346335 268.644395 
L 139.774548 267.031543 
L 141.540521 265.563496 
L 146.176201 261.515569 
L 148.604414 259.822974 
L 151.474121 258.085975 
L 152.357107 257.506889 
L 155.447561 253.977259 
L 160.74548 248.388848 
L 162.290707 246.993405 
L 163.39444 246.233052 
L 164.498173 245.75808 
L 165.38116 245.62132 
L 165.822653 245.578136 
L 167.147133 245.023125 
L 168.250867 244.786812 
L 169.575347 244.763797 
L 170.899826 244.98827 
L 172.224306 245.439981 
L 173.769533 246.213065 
L 175.535506 247.349601 
L 177.522226 248.884318 
L 180.833426 251.559851 
L 182.378653 252.72624 
L 188.118066 257.419894 
L 190.325532 258.58988 
L 190.987772 258.858461 
L 191.650012 258.526791 
L 196.064945 255.765451 
L 197.830918 254.36341 
L 199.376145 252.859002 
L 201.362865 250.849567 
L 203.570331 248.881871 
L 205.336305 246.896806 
L 207.764518 243.701723 
L 209.530491 241.40109 
L 210.854971 239.944538 
L 212.400198 238.593102 
L 215.269904 236.25071 
L 216.815131 234.548154 
L 218.581104 232.57193 
L 219.464091 231.905452 
L 220.126331 231.676389 
L 220.788571 231.689366 
L 221.450811 232.008637 
L 222.113051 232.60713 
L 222.996037 233.758486 
L 224.320517 235.957422 
L 225.203504 237.312766 
L 225.865744 237.474907 
L 226.74873 237.940527 
L 227.41097 238.327139 
L 230.280677 237.964491 
L 231.38441 237.505003 
L 233.37113 236.353412 
L 234.916357 235.406597 
L 236.461583 233.49838 
L 237.565316 232.402267 
L 242.421743 228.084055 
L 243.525476 226.694948 
L 244.187716 225.38668 
L 248.381903 216.573437 
L 253.017582 206.215423 
L 254.342062 203.898785 
L 255.887289 201.64368 
L 257.432515 199.811734 
L 258.756995 198.594248 
L 260.081475 197.648716 
L 261.405955 196.942753 
L 263.392675 196.215209 
L 265.379395 195.705663 
L 267.586862 195.340103 
L 269.352835 195.368288 
L 270.015075 195.573691 
L 270.677315 195.977737 
L 271.339555 196.655853 
L 272.001795 197.673187 
L 272.884781 199.638102 
L 273.767768 202.256652 
L 274.871501 206.349553 
L 277.078968 215.816248 
L 278.624194 221.989119 
L 279.948674 226.365047 
L 281.052408 229.315629 
L 281.493901 229.841282 
L 282.818381 231.054313 
L 283.922114 232.370855 
L 285.025847 234.044798 
L 286.571074 236.867216 
L 287.454061 238.488488 
L 288.557794 239.567596 
L 290.103021 241.438542 
L 291.868994 243.950185 
L 293.193474 246.243032 
L 294.517954 248.972936 
L 296.06318 252.665041 
L 298.270647 257.962674 
L 299.815873 257.850374 
L 301.3611 257.437882 
L 303.127073 256.79965 
L 303.34782 256.405929 
L 304.230807 252.970195 
L 307.100513 237.497253 
L 309.087233 227.891173 
L 310.63246 221.392191 
L 315.709633 201.238517 
L 317.475606 192.461647 
L 319.903819 179.095993 
L 324.760245 150.87699 
L 327.850699 131.135339 
L 335.135338 83.434505 
L 337.563552 69.701739 
L 340.874751 52.604248 
L 343.523711 40.263515 
L 343.965205 38.25 
L 343.965205 38.25 
" clip-path="url(#p0d74b81a32)" style="fill: none; stroke-dasharray: 11.25,2.25,2.25,2.25; stroke-dashoffset: 0; stroke: #2d1e3e; stroke-width: 2.25"/>
   </g>
   <g id="line2d_26"/>
   <g id="line2d_27"/>
   <g id="line2d_28"/>
   <g id="line2d_29"/>
   <g id="line2d_30"/>
   <g id="line2d_31"/>
   <g id="line2d_32"/>
   <g id="line2d_33"/>
   <g id="patch_3">
    <path d="M 112.413 299.7 
L 112.413 25.8 
" style="fill: none; stroke: #000000; stroke-width: 1.875; stroke-linejoin: miter; stroke-linecap: square"/>
   </g>
   <g id="patch_4">
    <path d="M 112.413 299.7 
L 354.9915 299.7 
" style="fill: none; stroke: #000000; stroke-width: 1.875; stroke-linejoin: miter; stroke-linecap: square"/>
   </g>
  </g>
  <g id="legend_1">
   <g id="text_15">
    <!-- depth -->
    <g transform="translate(371.483437 78.06625) scale(0.18 -0.18)">
     <defs>
      <path id="DejaVuSans-70" d="M 1159 525 
L 1159 -1331 
L 581 -1331 
L 581 3500 
L 1159 3500 
L 1159 2969 
Q 1341 3281 1617 3432 
Q 1894 3584 2278 3584 
Q 2916 3584 3314 3078 
Q 3713 2572 3713 1747 
Q 3713 922 3314 415 
Q 2916 -91 2278 -91 
Q 1894 -91 1617 61 
Q 1341 213 1159 525 
z
M 3116 1747 
Q 3116 2381 2855 2742 
Q 2594 3103 2138 3103 
Q 1681 3103 1420 2742 
Q 1159 2381 1159 1747 
Q 1159 1113 1420 752 
Q 1681 391 2138 391 
Q 2594 391 2855 752 
Q 3116 1113 3116 1747 
z
" transform="scale(0.015625)"/>
      <path id="DejaVuSans-68" d="M 3513 2113 
L 3513 0 
L 2938 0 
L 2938 2094 
Q 2938 2591 2744 2837 
Q 2550 3084 2163 3084 
Q 1697 3084 1428 2787 
Q 1159 2491 1159 1978 
L 1159 0 
L 581 0 
L 581 4863 
L 1159 4863 
L 1159 2956 
Q 1366 3272 1645 3428 
Q 1925 3584 2291 3584 
Q 2894 3584 3203 3211 
Q 3513 2838 3513 2113 
z
" transform="scale(0.015625)"/>
     </defs>
     <use xlink:href="#DejaVuSans-64"/>
     <use xlink:href="#DejaVuSans-65" x="63.476562"/>
     <use xlink:href="#DejaVuSans-70" x="125"/>
     <use xlink:href="#DejaVuSans-74" x="188.476562"/>
     <use xlink:href="#DejaVuSans-68" x="227.685547"/>
    </g>
   </g>
   <g id="line2d_34">
    <path d="M 358.683437 96.367187 
L 374.683437 96.367187 
L 390.683437 96.367187 
" style="fill: none; stroke: #edd1cb; stroke-width: 2.25; stroke-linecap: square"/>
   </g>
   <g id="text_16">
    <!-- 3 -->
    <g transform="translate(403.483437 101.967187) scale(0.16 -0.16)">
     <defs>
      <path id="DejaVuSans-33" d="M 2597 2516 
Q 3050 2419 3304 2112 
Q 3559 1806 3559 1356 
Q 3559 666 3084 287 
Q 2609 -91 1734 -91 
Q 1441 -91 1130 -33 
Q 819 25 488 141 
L 488 750 
Q 750 597 1062 519 
Q 1375 441 1716 441 
Q 2309 441 2620 675 
Q 2931 909 2931 1356 
Q 2931 1769 2642 2001 
Q 2353 2234 1838 2234 
L 1294 2234 
L 1294 2753 
L 1863 2753 
Q 2328 2753 2575 2939 
Q 2822 3125 2822 3475 
Q 2822 3834 2567 4026 
Q 2313 4219 1838 4219 
Q 1578 4219 1281 4162 
Q 984 4106 628 3988 
L 628 4550 
Q 988 4650 1302 4700 
Q 1616 4750 1894 4750 
Q 2613 4750 3031 4423 
Q 3450 4097 3450 3541 
Q 3450 3153 3228 2886 
Q 3006 2619 2597 2516 
z
" transform="scale(0.015625)"/>
     </defs>
     <use xlink:href="#DejaVuSans-33"/>
    </g>
   </g>
   <g id="line2d_35">
    <path d="M 358.683437 119.852187 
L 374.683437 119.852187 
L 390.683437 119.852187 
" style="fill: none; stroke: #a9678f; stroke-width: 2.25; stroke-linecap: square"/>
   </g>
   <g id="text_17">
    <!-- 4 -->
    <g transform="translate(403.483437 125.452187) scale(0.16 -0.16)">
     <use xlink:href="#DejaVuSans-34"/>
    </g>
   </g>
   <g id="line2d_36">
    <path d="M 358.683437 143.337187 
L 374.683437 143.337187 
L 390.683437 143.337187 
" style="fill: none; stroke: #2d1e3e; stroke-width: 2.25; stroke-linecap: square"/>
   </g>
   <g id="text_18">
    <!-- 5 -->
    <g transform="translate(403.483437 148.937187) scale(0.16 -0.16)">
     <use xlink:href="#DejaVuSans-35"/>
    </g>
   </g>
   <g id="text_19">
    <!-- trotter_steps -->
    <g transform="translate(371.483437 173.941875) scale(0.18 -0.18)">
     <defs>
      <path id="DejaVuSans-5f" d="M 3263 -1063 
L 3263 -1509 
L -63 -1509 
L -63 -1063 
L 3263 -1063 
z
" transform="scale(0.015625)"/>
     </defs>
     <use xlink:href="#DejaVuSans-74"/>
     <use xlink:href="#DejaVuSans-72" x="39.208984"/>
     <use xlink:href="#DejaVuSans-6f" x="78.072266"/>
     <use xlink:href="#DejaVuSans-74" x="139.253906"/>
     <use xlink:href="#DejaVuSans-74" x="178.462891"/>
     <use xlink:href="#DejaVuSans-65" x="217.671875"/>
     <use xlink:href="#DejaVuSans-72" x="279.195312"/>
     <use xlink:href="#DejaVuSans-5f" x="320.308594"/>
     <use xlink:href="#DejaVuSans-73" x="370.308594"/>
     <use xlink:href="#DejaVuSans-74" x="422.408203"/>
     <use xlink:href="#DejaVuSans-65" x="461.617188"/>
     <use xlink:href="#DejaVuSans-70" x="523.140625"/>
     <use xlink:href="#DejaVuSans-73" x="586.617188"/>
    </g>
   </g>
   <g id="line2d_37">
    <path d="M 358.683437 192.743437 
L 374.683437 192.743437 
L 390.683437 192.743437 
" style="fill: none; stroke: #333333; stroke-width: 2.25; stroke-linecap: square"/>
   </g>
   <g id="text_20">
    <!-- 1 -->
    <g transform="translate(403.483437 198.343437) scale(0.16 -0.16)">
     <use xlink:href="#DejaVuSans-31"/>
    </g>
   </g>
   <g id="line2d_38">
    <path d="M 358.683437 216.228437 
L 374.683437 216.228437 
L 390.683437 216.228437 
" style="fill: none; stroke-dasharray: 9,3.375; stroke-dashoffset: 0; stroke: #333333; stroke-width: 2.25"/>
   </g>
   <g id="text_21">
    <!-- 2 -->
    <g transform="translate(403.483437 221.828437) scale(0.16 -0.16)">
     <use xlink:href="#DejaVuSans-32"/>
    </g>
   </g>
   <g id="line2d_39">
    <path d="M 358.683437 239.713437 
L 374.683437 239.713437 
L 390.683437 239.713437 
" style="fill: none; stroke-dasharray: 2.25,2.25; stroke-dashoffset: 0; stroke: #333333; stroke-width: 2.25"/>
   </g>
   <g id="text_22">
    <!-- 3 -->
    <g transform="translate(403.483437 245.313437) scale(0.16 -0.16)">
     <use xlink:href="#DejaVuSans-33"/>
    </g>
   </g>
   <g id="line2d_40">
    <path d="M 358.683437 263.198437 
L 374.683437 263.198437 
L 390.683437 263.198437 
" style="fill: none; stroke-dasharray: 6.75,2.8125,3.375,2.8125; stroke-dashoffset: 0; stroke: #333333; stroke-width: 2.25"/>
   </g>
   <g id="text_23">
    <!-- 4 -->
    <g transform="translate(403.483437 268.798437) scale(0.16 -0.16)">
     <use xlink:href="#DejaVuSans-34"/>
    </g>
   </g>
   <g id="line2d_41">
    <path d="M 358.683437 286.683437 
L 374.683437 286.683437 
L 390.683437 286.683437 
" style="fill: none; stroke-dasharray: 11.25,2.25,2.25,2.25; stroke-dashoffset: 0; stroke: #333333; stroke-width: 2.25"/>
   </g>
   <g id="text_24">
    <!-- 10 -->
    <g transform="translate(403.483437 292.283437) scale(0.16 -0.16)">
     <use xlink:href="#DejaVuSans-31"/>
     <use xlink:href="#DejaVuSans-30" x="63.623047"/>
    </g>
   </g>
  </g>
 </g>
 <defs>
  <clipPath id="p0d74b81a32">
   <rect x="112.413" y="25.8" width="242.5785" height="273.9"/>
  </clipPath>
 </defs>
</svg>
